<svg id="Layer_1" data-name="Layer 1" xmlns="http://www.w3.org/2000/svg" viewBox="0 0 1472.97 307.28"><defs><style>.cls-1{fill:#e41e26;}</style></defs><title>Artboard 34</title><path class="cls-1" d="M851.22,238.61a85,85,0,1,1,85-85A85.07,85.07,0,0,1,851.22,238.61Zm0-160a75,75,0,1,0,75,75A75.07,75.07,0,0,0,851.22,78.66Z"/><path class="cls-1" d="M876.23,194.5l-11.46-14.17a38.34,38.34,0,0,1-6.33,4.68l-3.32,1.8a20.63,20.63,0,0,1-2,1.06,25.06,25.06,0,0,1-34.37-6.48,22.44,22.44,0,0,1-3.92-14.63c.3-4.67,2.26-9.34,5.88-13.86,3.17-4.07,8.14-7.24,13.57-10.71a63.38,63.38,0,0,1-4.68-6.63,21.6,21.6,0,0,1-2.86-8.59,19,19,0,0,1,1.51-10.25,20.74,20.74,0,0,1,9.49-10.41,22.14,22.14,0,0,1,13.87-2.11,21.34,21.34,0,0,1,11.46,6,20.87,20.87,0,0,1,5.73,11.46c1.81,10.25-4.22,17.34-11.91,23.82l9.34,11.91c1.66-1.66,2.72-3,4.23-4.68,2.71-3,5.42-6,8.89-9.49l10.86,10.85c-2.27,2.26-5,5.58-8.15,9.05l-6,6.63,12.06,14.77Zm-21.56-27c-3.62-4.68-7.09-9.05-10.56-13.27-4.82,3.17-9.49,6.18-11.45,8.44a9.85,9.85,0,0,0-2.41,5.28,6,6,0,0,0,1.35,4.67,8.83,8.83,0,0,0,5.88,3.77c2.57.45,4.83-.15,7.54-1.66l3-1.65a10,10,0,0,0,2.1-1.21,31.88,31.88,0,0,0,5.13-3.62Zm-7.39-34.07c4.07-3.17,6.79-6.48,6.33-9.35a6.24,6.24,0,0,0-1.5-3.16,6.13,6.13,0,0,0-3.17-1.51,5.4,5.4,0,0,0-4.07.6,4.52,4.52,0,0,0-2.41,2.56,6.43,6.43,0,0,0-.45,2.72,9.79,9.79,0,0,0,1,2.71A52.8,52.8,0,0,0,847.28,133.45Zm-.15,0c-1.66-2.26-.6-1.06.15,0Zm41,51.1-11.9,9.95Z"/><path d="M126.75,152.85H207.7v.27c0,21.67-7,40.47-21.41,54.84a79.13,79.13,0,0,1-56.41,23.24c-21.67,0-40.74-8.1-54.84-22.72-14.1-14.36-22.72-33.17-22.72-54.84S60.94,113.16,75,98.8c14.1-14.63,33.69-22.72,54.84-22.72a75.58,75.58,0,0,1,35.26,8.35,74,74,0,0,1,27.68,23.77l-21.68,15.67a51.52,51.52,0,0,0-18-15.41,48.57,48.57,0,0,0-23.24-5.75A49.94,49.94,0,0,0,94.1,117.86a50.79,50.79,0,0,0,35.78,86.7,52.89,52.89,0,0,0,37.35-15.41,58.83,58.83,0,0,0,7.31-9.14l-47.79-.52Zm0,0v0Z"/><path d="M297.19,194.38h-51.7l-15.67,33.43H200.57l57.71-122.22,12-25.33,12.28,25.07,60.32,122.48H313.65ZM257.5,169.31h27.16l-13.84-28.47Zm13.32-28.47L257.5,169.31Z"/><path d="M451.66,81V227.28L428.41,203l-55.1-56.67V227H346.67V81l23.25,24.29L425,162V81ZM425,81h0Z"/><path d="M493.51,80.78V81h17a73.44,73.44,0,0,1,52,21.41,72.54,72.54,0,0,1,21.41,52,73.12,73.12,0,0,1-73.38,73.39H466.88v-147Zm-26.63,0h0Zm26.63,26.9v93.49h17a46.54,46.54,0,0,0,32.9-79.65,45.73,45.73,0,0,0-32.9-13.84Z"/><path d="M622.7,80.78v60.85h45.44V80.78h26.64v147H668.14V168.26H622.7v59.55H595.8v-147Zm-26.9,0h0Z"/><path d="M736.19,80.78v147H709.55v-147Zm-26.64,0h0Z"/><path d="M1071.11,79.34V225.58l-23.24-24.28-55.1-56.67v80.69H966.13v-146l23.24,24.29,55.11,56.67v-81Zm-26.63,0h0Z"/><path d="M1113,139.93h39.7v26.64H1113v32.64h53.28v26.9h-79.92V78.82h79.92v26.64H1113Zm0-34.47v0Z"/><path d="M1269.63,226.11h-31.08l-29.77-49.88h-3.92v49.88h-26.63v-147h26.63v.26h12.54a46.89,46.89,0,0,1,34.21,14.1c8.88,9.4,14.36,20.9,14.36,34.21a46.67,46.67,0,0,1-14.36,34.21,47.36,47.36,0,0,1-14.36,9.93Zm-64.77-76.78h12.54a21.4,21.4,0,0,0,21.67-21.68,22,22,0,0,0-6.26-15.4A21.1,21.1,0,0,0,1217.4,106h-12.54Z"/><path d="M1302.47,79.08v85.4c0,8.35-.26,16.71,2.61,22.72a24.88,24.88,0,0,0,9.41,10.7,23.21,23.21,0,0,0,13,3.92,23.52,23.52,0,0,0,12.28-3.4,24.23,24.23,0,0,0,9.4-9.13c3.92-6.27,3.39-14.89,3.39-23.51V79.08h26.9v86.7c0,12.28,0,24.55-7.31,37.08a52.58,52.58,0,0,1-19.06,18.81,50,50,0,0,1-25.6,6.79,49.05,49.05,0,0,1-27.68-8.1,51,51,0,0,1-19.06-21.67c-5.75-11.76-5.22-23.25-5.22-34.48a48.29,48.29,0,0,0,.26-6V79.08Zm0,0h0Z"/></svg>