<svg width="50px" height="50px" viewBox="0 0 546 610" fill="none" xmlns="http://www.w3.org/2000/svg" style="    position: absolute;padding: 5px 0;top: 120px;"><path d="M306.163 148.746L306.111 148.722L306.057 148.7C300.621 146.446 294.089 146.134 288.219 148.739L288.211 148.742L288.204 148.746L114.449 226.738C110.47 228.28 107.015 231.084 104.63 234.667L104.597 234.717L104.565 234.768L56.0109 312.673L55.8813 312.881L55.778 313.104L55.6121 313.461C50.1799 322.88 54.8013 334.128 64.6049 338.577L64.614 338.581L64.6231 338.586L101.855 355.258V440.272V444.272H102.428C103.73 449.689 107.648 454.468 113.448 456.969L288.174 535.331C288.18 535.334 288.185 535.336 288.191 535.339C293.493 537.764 300.275 538.033 306.175 535.339C306.18 535.337 306.185 535.335 306.189 535.333L479.57 457.618C487.058 455.159 492.365 448.116 492.365 440.316V355.306L528.607 339.139C528.845 339.04 529.048 338.939 529.156 338.885L529.253 338.837C529.293 338.816 529.322 338.802 529.346 338.79L529.858 338.725L530.487 338.399C540.194 333.371 544.084 321.999 538.313 312.683L538.309 312.676L538.305 312.67L489.653 234.765L489.623 234.716L489.591 234.668C487.615 231.698 484.869 228.908 480.878 227.168C480.87 227.165 480.863 227.161 480.855 227.158L306.163 148.746ZM245.236 406.441L246.014 406.789H246.237C252.379 409.362 260.193 407.504 263.783 401.638C263.786 401.634 263.788 401.63 263.79 401.625L283.247 370.163V491.592L142.697 428.596V360.634L245.236 406.441ZM330.54 401.601C334.117 407.437 341.92 409.375 348.095 406.745H348.306L349.087 406.395L451.718 360.38V428.551L310.924 491.594V370.245L330.527 401.582C330.531 401.588 330.535 401.595 330.54 401.601ZM132.654 327.381L132.528 327.324L132.399 327.276C132.212 327.207 132.03 327.125 131.704 326.978C131.596 326.929 131.473 326.873 131.328 326.808C130.894 326.614 130.312 326.359 129.65 326.143L102.278 313.814L133.831 263.333L277.853 327.802L246.252 378.484L132.654 327.381ZM161.402 247.205L283.247 192.712V301.894L161.402 247.205ZM432.901 247.243L310.924 301.815V192.711L432.901 247.243ZM492.312 313.729L347.976 378.484L316.506 327.805L460.501 263.327L492.312 313.729Z" fill="#5D3FD3" stroke="#5D3FD3" stroke-width="8"></path><path d="M153.905 186.044C182.142 185.782 198.408 195.532 201.337 216.513C201.694 198.261 201.343 179.758 238.271 174.762C207.952 179.162 194.703 166.474 190.777 144.186C192.924 165.79 185.394 182.294 153.905 186.044ZM150.991 112.811C161.128 116.697 166.731 122.688 160.972 133.885C167.509 124.428 175.748 121.194 185.802 124.689C177.703 120.645 169.385 116.803 175.819 103.557C170.66 114.501 161.843 116.256 150.991 112.811ZM182.374 284.618C194.981 284.488 202.204 288.879 203.5 298.211C203.654 290.068 203.528 281.847 219.936 279.595C206.456 281.571 200.513 275.913 198.797 266.004C199.73 275.615 196.373 282.977 182.374 284.618ZM167.94 72.6378C180.547 72.5073 187.77 76.8989 189.065 86.231C189.22 78.0876 189.094 69.8665 205.502 67.6147C192.022 69.5901 186.078 63.9328 184.363 54.0232C185.296 63.6342 181.938 70.9962 167.94 72.6378ZM226.588 243.783C263.266 247.981 262.148 266.542 261.724 284.797C265.502 263.754 282.224 253.626 310.453 253.319C279.107 250.217 272.287 233.87 275.312 212.266C270.443 234.577 256.687 247.535 226.588 243.783ZM214.455 137.679C255.76 137.225 279.619 151.604 283.901 182.313C284.371 155.635 283.887 128.394 337.904 121.17C293.636 127.551 274.206 109.007 268.441 76.4226C271.57 107.977 260.526 132.151 214.455 137.679ZM228.399 57.0059C243.709 62.5052 249.805 71.1378 245.74 83.3182C250.785 73.2534 255.6 62.989 276.756 67.5912C259.306 63.9912 255.548 54.3546 259.481 41.2701C254.766 53.5952 246.344 61.2311 228.399 57.0059ZM315.859 271.941C326.104 265.294 335.057 264.978 342.671 271.587C337.098 265.154 331.201 258.805 343.068 248.542C333.433 257.072 324.641 255.73 316.255 248.896C323.793 255.907 326.163 263.396 315.859 271.941ZM304.738 194.389C321.452 185.587 331.985 191.034 340.058 202.167C332.586 190.089 333.728 179.509 350.154 171.494C330.253 181.472 322.618 172.412 314.833 163.717C322.165 174.834 318.545 184.996 304.738 194.389ZM294.229 64.4481C339.044 73.7787 360.303 95.1887 355.1 129.931C364.134 100.725 372.311 70.7125 433.051 75.494C383.057 72.0982 367.99 47.0949 372.105 9.96336C365.519 45.3515 345.845 69.2975 294.229 64.4481ZM346.249 239.51C383.033 225.57 410.801 230.382 428.214 255.809C416.856 232.292 404.405 208.655 449.648 184.574C412.762 204.715 387.084 194.899 367.487 168.312C384.26 194.873 385.048 219.597 346.249 239.51ZM372.461 138.44C387.829 148.943 391.554 160.658 382.483 173.508C391.942 163.314 401.22 152.798 423.588 163.863C405.091 154.93 404.313 142.706 413.557 128.738C403.761 141.685 391.214 148.202 372.461 138.44ZM389.405 35.9931C402.012 35.8626 409.235 40.2542 410.53 49.5863C410.685 41.4429 410.559 33.2218 426.953 30.9717C413.474 32.9472 407.543 27.2881 405.828 17.3785C406.761 26.9895 403.403 34.3515 389.405 35.9931ZM427.119 128.711C439.727 128.58 446.95 132.972 448.245 142.304C448.399 134.16 448.273 125.939 464.668 123.689C451.188 125.665 445.258 120.006 443.543 110.096C444.476 119.707 441.118 127.069 427.119 128.711Z" fill="#D3983F"></path></svg>
