<svg width="91" height="75" viewBox="0 0 91 75" fill="none" xmlns="http://www.w3.org/2000/svg">
<path d="M90.3474 49.6916L85.0427 50.1252L44.0817 18.4372C44.8356 17.9841 45.3864 17.4177 45.6012 16.6989C45.9215 15.613 45.7301 14.5231 45.0426 13.5505C43.8864 11.9138 41.6442 10.9255 40.2614 10.5505C40.0857 10.4021 39.9528 10.3005 39.9333 10.2888L39.7849 10.2107C39.3747 10.07 35.7458 8.88256 33.9919 10.1989C33.9645 10.2185 33.945 10.2458 33.9216 10.2653C32.9997 10.1325 27.1013 9.2966 24.9802 9.40207C23.0935 9.4841 20.5427 9.95676 19.6677 10.1286C19.6013 10.0036 19.5309 9.88254 19.445 9.76535C19.4841 9.34738 19.3942 8.85129 19.2458 8.37475L19.9489 8.56225L19.5778 5.59745C19.5778 5.59745 18.5739 -1.13695 12.3395 0.167746C6.10511 1.47635 6.30431 6.67165 7.10511 9.98805C7.10511 9.98805 7.33167 10.1716 7.88636 10.2654C7.97621 10.4294 8.05434 10.6013 8.15199 10.7615C8.10511 10.7654 8.07386 10.7654 8.07386 10.7654C8.10511 11.4294 8.54261 12.1209 9.00355 12.6716C9.30043 13.0271 9.69886 13.2497 10.1247 13.3435C10.4684 13.7028 10.8278 14.031 11.195 14.3396C10.2379 15.1325 7.94495 17.0896 7.37465 18.0584C6.63637 19.3123 4.76915 22.9373 3.35125 29.5154C1.92935 36.1013 1.78875 38.5232 1.78095 38.6209L1.74579 39.2849L1.84735 39.2771C1.09344 40.2419 -0.203446 42.1521 0.0270544 43.6443C0.351274 45.7185 2.23015 45.656 2.23015 45.656C2.23015 45.656 2.74187 46.2771 3.26925 46.3943L3.66378 55.6131C2.33568 55.8904 1.38258 56.7811 1.38258 57.8826C1.38258 59.0388 2.42948 59.9724 3.85918 60.199L3.97637 62.9334L5.14047 62.8865L5.02719 60.2146C6.54279 60.0388 7.67169 59.0818 7.67169 57.8826C7.67169 56.6326 6.44119 55.6482 4.82399 55.5388L4.37868 45.1838C5.05056 45.1174 5.63648 44.7619 5.99588 44.2307L6.24197 44.1018L6.31619 43.5197C6.35916 43.3518 6.38651 43.176 6.38651 42.9924C6.38651 42.9651 6.37869 42.9377 6.37869 42.9104L6.51541 41.5862L6.5701 41.7034L7.06229 40.4143C8.28109 37.2385 10.2811 32.5159 10.9217 31.9534C11.7303 31.2463 12.7381 29.4456 13.2811 28.4143L17.3631 34.4182C17.7264 34.9572 18.2381 35.34 18.8319 35.5276C18.9764 35.5744 19.1561 35.6213 19.3436 35.6721L19.7421 36.2541C19.5467 36.9651 18.4882 41.0627 19.1874 43.5353L19.496 44.6369L19.785 44.2697C19.8006 46.0978 20.203 48.6369 22.0975 50.215C22.6795 50.6994 23.6873 51.5509 24.91 52.5861C24.1913 52.1838 23.3983 51.9221 22.5506 51.8635C21.3865 51.7853 20.2381 52.0822 19.2459 52.6799C18.8983 52.3361 18.5154 52.0197 18.074 51.7658C16.7654 51.0158 15.2459 50.8244 13.7849 51.215C12.3279 51.6096 11.113 52.5509 10.363 53.8595C9.68723 55.0392 9.45676 56.422 9.71848 57.754L10.863 57.5275C10.6559 56.4728 10.8395 55.3752 11.3747 54.4416C11.9684 53.4025 12.9333 52.6604 14.0895 52.3439C15.2497 52.0275 16.4528 52.1876 17.4918 52.7814C19.1871 53.754 20.0543 55.6916 19.648 57.6017L20.7886 57.8439C21.1089 56.3322 20.8003 54.8087 19.9956 53.5783C20.7456 53.1642 21.605 52.9611 22.4644 53.0236C23.6597 53.1056 24.7496 53.6525 25.5347 54.5548C26.3199 55.4571 26.7066 56.6134 26.6206 57.8087C26.4878 59.6954 25.1948 61.2696 23.394 61.7892C23.2925 61.7814 23.1948 61.7657 23.0893 61.7657C21.7104 61.7657 20.4448 62.4298 19.6166 63.5196C16.9955 63.2384 13.8002 63.1485 11.9955 64.0196C10.39 64.8009 10.2807 65.879 10.3627 66.4493C10.6713 68.6837 14.6752 70.7462 20.8077 71.8321C23.9522 72.3868 28.8819 72.6134 34.3347 72.6134C44.6197 72.6134 56.7407 71.8165 62.1937 70.9572C62.182 71.09 62.1547 71.2189 62.1547 71.3556C62.1547 72.4103 62.5336 73.4259 63.225 74.2189L64.1078 73.4533C63.6039 72.8713 63.3265 72.1291 63.3265 71.3556C63.3265 69.5861 64.764 68.1447 66.5374 68.1447C67.9358 68.1447 69.1663 69.0392 69.596 70.3713L70.7093 70.0158C70.3382 68.8596 69.5179 67.9455 68.4827 67.4338C68.7991 66.9612 69.2366 66.5784 69.7522 66.3283C70.5257 65.9572 71.3928 65.9065 72.2053 66.1877C73.0139 66.469 73.6662 67.051 74.0373 67.8205C74.6467 69.0822 74.3772 70.5783 73.3616 71.5432L74.1662 72.387C75.549 71.0745 75.9201 69.0354 75.0881 67.3128C74.5803 66.2581 73.6897 65.469 72.5881 65.0823C71.4865 64.6995 70.299 64.7659 69.2443 65.2737C68.4435 65.6604 67.7951 66.2932 67.3576 67.0589C67.0881 67.0081 66.8186 66.9729 66.5373 66.9729C64.6975 66.9729 63.1271 68.1174 62.4787 69.7268C54.8342 71.0276 29.9667 72.262 21.0137 70.68C14.7559 69.5706 11.709 67.6253 11.5215 66.2855C11.4434 65.7112 12.0137 65.305 12.5098 65.0667C15.502 63.6136 23.5328 65.2893 23.6938 65.3167C25.2407 65.4221 61.7208 67.8948 73.1078 62.5394L72.6117 61.4808C71.4515 62.0276 69.9906 62.4847 68.3265 62.8714L68.3187 62.5432C68.3187 62.4768 68.2679 61.555 67.3617 60.5588C67.3617 60.5354 67.3539 60.512 67.3539 60.4885C67.3539 58.719 68.7914 57.2776 70.5648 57.2776C71.9632 57.2776 73.1937 58.1721 73.6234 59.5042L74.7366 59.1487C74.3773 58.0354 73.6078 57.1487 72.6273 56.6292C73.178 56.2855 73.6506 55.8441 74.0491 55.344V55.348C75.6155 54.7581 77.3383 55.4534 78.0648 56.9574C78.6741 58.2191 78.4046 59.7152 77.389 60.6801L78.1937 61.5238C79.5765 60.2074 79.9476 58.1683 79.1155 56.4496C78.3069 54.7816 76.596 53.8637 74.8421 54.0043C75.0687 53.4535 75.2132 52.8598 75.2562 52.2387C75.3617 50.7348 74.8773 49.2778 73.8851 48.1371C72.8968 47.0004 71.5218 46.3129 70.0179 46.2074C68.8577 46.1332 67.7054 46.4301 66.7132 47.0277C66.3655 46.684 65.9827 46.3676 65.5413 46.1137C62.8421 44.5668 59.3811 45.5043 57.8304 48.2035C57.3421 49.055 57.096 50.0082 57.0921 50.9769C53.6546 48.555 49.5218 45.5863 48.1507 44.3558C46.8655 43.2035 45.1546 42.4378 43.7132 41.9535L42.7601 38.5902L42.7679 38.2503C42.7718 38.1566 42.8773 29.0628 36.3265 27.7423L35.3617 26.1017C35.4632 25.8556 35.5218 25.6916 35.5375 25.6564L35.6234 25.4103L32.7015 20.0783C32.9476 20.09 33.5648 20.1135 34.4085 20.1135C36.6116 20.1135 40.3343 19.9455 42.9007 18.9729L84.2637 50.9769V56.7503L87.2442 53.2815L89.4356 54.9768L90.1504 54.051L88.0098 52.3948L90.3474 49.6916ZM18.7384 10.8796C18.8986 11.2585 18.9572 11.6609 18.8869 12.0593C18.7853 12.614 18.4533 13.0945 17.9884 13.3952L17.6642 13.571C18.09 12.5944 18.34 11.5944 18.4455 11.0944C18.5314 11.0436 18.6369 10.9538 18.7384 10.8796ZM17.8947 8.06711C18.1642 8.73508 18.3595 9.48121 18.3166 9.66091C18.1876 9.91482 17.8283 10.1101 17.715 10.157L17.4181 10.2781L17.3595 10.5945C17.1056 11.9851 16.3165 14.364 15.2892 14.8406C14.7892 15.0711 13.6408 14.7976 12.1954 13.6687C11.9884 13.5046 11.7931 13.3093 11.59 13.1296L12.2892 12.8406L12.4181 11.8015L14.0392 12.321C14.0392 12.321 15.0783 12.321 16.3751 10.8952C17.6719 9.46941 17.3477 8.49681 17.3477 8.49681L17.8947 8.06711ZM9.45718 10.6257C9.37905 10.5085 9.29312 10.3992 9.2189 10.282C10.6291 10.1413 12.8634 9.50852 16.2931 7.59446L16.6954 7.69993L15.9845 8.10618C14.0704 9.75848 11.1642 10.3874 9.45718 10.6257ZM4.18378 44.0317C3.60956 44.0317 3.14468 43.5669 3.14468 42.9926C3.14468 42.4223 3.60952 41.9574 4.18378 41.9574C4.758 41.9574 5.22288 42.4223 5.22288 42.9926C5.21897 43.5668 4.75413 44.0317 4.18378 44.0317ZM10.1526 31.0787C9.2268 31.8873 7.23458 36.774 6.33618 39.0553C5.35962 38.2467 3.87138 38.0788 3.00808 38.0592C3.12917 36.9772 3.48855 34.4108 4.49248 29.7623C5.87528 23.3521 7.67218 19.8561 8.37918 18.6493C8.46121 18.5087 8.61746 18.3212 8.80496 18.1142C8.76199 22.1728 11.1917 25.8173 12.4691 27.4462C11.9651 28.4423 10.8635 30.4537 10.1526 31.0787ZM19.1878 34.4185C18.844 34.3091 18.5472 34.0826 18.3323 33.7623L14.1448 27.6139C14.094 27.5592 9.18781 22.2584 10.0745 16.8599C10.762 16.231 11.5237 15.5747 12.1565 15.0591C13.1565 15.7192 14.0979 16.0825 14.8792 16.0825C15.2073 16.0825 15.5081 16.02 15.7776 15.8989C15.8401 15.8676 15.8948 15.8168 15.9573 15.7817L15.973 15.809L17.516 14.977C17.6839 16.1098 18.5355 21.3286 20.559 24.6801C22.6606 28.1606 26.1293 33.309 26.6059 34.0121C23.3403 35.4301 20.3831 34.8013 19.1878 34.4185ZM22.844 49.3245C20.7424 47.5745 20.8831 44.1331 21.0276 42.8206C22.5628 41.2112 26.0081 38.1604 29.2424 39.1448C30.1682 39.4222 30.9299 39.5901 31.5901 39.6761L32.1565 44.9261C31.012 44.1995 30.3323 43.9066 30.2815 43.8831L29.8323 44.9573C29.8557 44.9651 32.137 45.9495 35.6018 49.0393C37.844 51.0393 42.5198 55.051 45.7068 57.7776C45.3825 57.676 45.0583 57.5744 44.7029 57.4768C40.8435 56.4377 38.2888 56.6721 37.1091 58.1721C36.5388 58.8986 36.3669 59.8635 36.5622 60.9924C32.6755 57.6721 24.985 51.1097 22.844 49.3245ZM23.8557 64.1795C23.7307 64.1561 22.594 63.9178 21.0393 63.7029C21.6096 63.2225 22.3284 62.9412 23.094 62.9412C24.1565 62.9412 25.1135 63.4608 25.7034 64.2889C24.5628 64.2264 23.8948 64.1834 23.8557 64.1795ZM30.8674 64.5389C29.4104 64.4803 28.133 64.4217 27.0783 64.367C26.6759 63.4686 26.0002 62.7459 25.1564 62.2967C25.7072 61.953 26.1798 61.5116 26.5783 61.0115V61.0154C28.1369 60.4256 29.8674 61.1209 30.5939 62.6248C30.8868 63.2264 30.9767 63.8904 30.8674 64.5389ZM32.0432 64.5819C32.1526 63.7459 32.0237 62.8905 31.6487 62.1131C30.8401 60.4451 29.133 59.5272 27.3752 59.6678C27.6018 59.117 27.7463 58.5233 27.7893 57.9022C27.8909 56.4764 27.4416 55.1014 26.5549 53.992C30.4104 57.2693 35.3596 61.4998 37.2739 63.1365C37.6763 64.0193 38.4145 64.6013 38.4575 64.6326L38.602 64.7419L39.145 64.7693C36.563 64.7302 34.1526 64.66 32.0432 64.5819ZM43.8132 59.1561C41.8952 58.8865 39.3484 58.785 38.1413 59.8358C37.9655 59.9881 37.8171 60.1443 37.6842 60.3045C37.6608 59.7381 37.7546 59.2459 38.0319 58.8904C38.8717 57.824 41.1335 57.7185 44.403 58.6013C46.3639 59.1287 47.735 59.738 48.7116 60.3357C48.735 60.3553 48.7624 60.3787 48.7819 60.3943C47.2624 59.8318 45.4539 59.3866 43.8132 59.1561ZM53.0124 64.6209C53.0163 64.2459 52.8366 63.6365 52.1257 62.5193C51.8991 61.7224 51.2389 60.5466 49.4109 59.4021C48.6296 58.738 46.5125 56.9294 44.1179 54.8787L55.7899 61.9725C55.6883 62.6482 55.8094 63.4881 56.4149 64.4452C55.2977 64.5155 54.1569 64.574 53.0124 64.6209ZM63.6724 58.5779C60.8091 57.8161 57.5708 58.7341 56.2896 60.6599C56.2857 60.6677 56.2779 60.6794 56.274 60.6872C56.438 56.863 59.8599 55.9255 61.3013 55.7067C61.7309 56.07 62.9888 57.1989 64.1568 58.7262C64.0005 58.6754 63.8482 58.6247 63.6724 58.5779ZM58.8443 48.8045C60.0748 46.66 62.817 45.9178 64.9615 47.1443C66.6568 48.1169 67.524 50.0545 67.1177 51.9646L68.2622 52.2068C68.5825 50.6951 68.27 49.1716 67.4692 47.9412C68.2231 47.5271 69.0786 47.3279 69.9419 47.3865C71.1372 47.4685 72.2271 48.0154 73.0122 48.9177C73.7974 49.82 74.1841 50.9763 74.0981 52.1716C73.9653 54.0583 72.6762 55.6325 70.8715 56.1521C70.7699 56.1442 70.6723 56.1286 70.5668 56.1286C68.4418 56.1286 66.6684 57.6559 66.2738 59.6677C66.2426 59.6482 66.2074 59.6287 66.1762 59.6091C65.1528 57.8669 63.8364 56.4568 62.9262 55.5896L63.6723 55.5584L62.2348 54.5701C62.1918 54.5388 60.5278 53.3943 58.3364 51.8631C58.1332 50.8201 58.3169 49.7342 58.8443 48.8045ZM47.3753 45.2459C49.4456 47.1053 57.3362 52.6092 60.3793 54.7186C58.5004 55.1756 55.4848 56.4881 55.1215 60.203L39.1135 50.4764L39.0744 50.5389C38.0197 49.6209 37.0744 48.7967 36.3752 48.1717C35.2541 47.1717 34.2697 46.4061 33.4182 45.7928L32.7659 39.7459C34.0901 39.7107 34.887 39.2537 35.7854 38.7186C36.2151 38.4647 36.6643 38.199 37.2229 37.9529C38.9573 37.1951 40.8049 38.1131 41.5159 38.535L42.3792 41.578C41.551 41.3592 40.973 41.2616 40.9065 41.2499L40.719 42.4022C40.7736 42.41 45.0003 43.113 47.3753 45.2459ZM36.5163 28.9999C40.5475 30.121 41.3874 35.0507 41.5593 37.2187C40.4655 36.6835 38.6101 36.0781 36.7663 36.8788C36.1374 37.1523 35.6413 37.4491 35.1999 37.7108C33.8483 38.5116 32.9616 39.0428 29.5827 38.0233C25.6765 36.8592 21.7975 40.3046 20.1335 42.0625C20.0319 40.3086 20.485 38.1367 20.735 37.0937L23.6647 35.996C25.0827 35.8436 26.6608 35.4139 28.278 34.4843C29.9186 33.5389 31.2389 32.332 32.2819 31.1171L36.5163 28.9999ZM34.3444 25.5272C33.9108 26.5975 31.9147 31.035 27.6921 33.4725C27.4421 33.617 27.1999 33.7147 26.9538 33.8318C26.6999 33.4608 23.0632 28.074 20.8874 24.4724C18.8093 21.0271 17.9812 15.5154 17.8757 14.7771L18.5788 14.3982C19.3601 13.9021 19.8757 13.1443 20.0358 12.2654C20.0983 11.9217 20.0866 11.5818 20.0358 11.242C21.0046 11.0584 23.3366 10.6405 25.0241 10.5663C25.2936 10.5545 25.6296 10.5584 26.0124 10.5741C25.7819 11.5623 25.446 14.0546 27.1022 16.5936C28.3249 18.4686 29.9772 19.3358 31.1686 19.742L34.3444 25.5272ZM32.7663 18.9374C32.7389 18.9335 29.8522 18.6717 28.0827 15.9569C26.5397 13.5897 27.028 11.2538 27.1921 10.6522C29.321 10.8201 32.0515 11.1873 33.2507 11.3553C32.8483 13.0194 34.1335 15.3162 34.3171 15.6326L34.4733 15.9021L39.2702 16.199L41.7897 18.1482C39.2467 18.8787 35.4459 19.0546 32.7663 18.9374ZM43.0863 17.6679L40.766 15.8749C41.4339 15.5467 42.0551 14.9452 42.1176 13.9101C42.1488 13.3671 41.9926 12.8554 41.7621 12.3945C42.6449 12.8476 43.5433 13.4609 44.0824 14.2265C44.5707 14.9179 44.6996 15.6171 44.4769 16.371C44.3246 16.8944 43.8167 17.3202 43.0863 17.6679Z" fill="#D4D4D4"/>
</svg>
